<mxfile host="app.diagrams.net" agent="Mozilla/5.0 (Macintosh; Intel Mac OS X 10_15_7) AppleWebKit/605.1.15 (KHTML, like Gecko) Version/16.6.1 Safari/605.1.15" version="24.7.7">
  <diagram name="第 1 页" id="hnCYUmv4tX3ALU6EYCjJ">
    <mxGraphModel dx="998" dy="624" grid="1" gridSize="10" guides="1" tooltips="1" connect="1" arrows="1" fold="1" page="1" pageScale="1" pageWidth="827" pageHeight="1169" math="0" shadow="0">
      <root>
        <mxCell id="0" />
        <mxCell id="1" parent="0" />
        <mxCell id="8Ib-3XbVQs4SO_SZbe9_-89" style="edgeStyle=orthogonalEdgeStyle;rounded=0;orthogonalLoop=1;jettySize=auto;html=1;exitX=1;exitY=0.5;exitDx=0;exitDy=0;exitPerimeter=0;entryX=0;entryY=0.5;entryDx=0;entryDy=0;" edge="1" parent="1" source="8Ib-3XbVQs4SO_SZbe9_-91" target="8Ib-3XbVQs4SO_SZbe9_-128">
          <mxGeometry relative="1" as="geometry" />
        </mxCell>
        <mxCell id="8Ib-3XbVQs4SO_SZbe9_-90" value="③" style="edgeLabel;html=1;align=center;verticalAlign=middle;resizable=0;points=[];" vertex="1" connectable="0" parent="8Ib-3XbVQs4SO_SZbe9_-89">
          <mxGeometry x="-0.095" y="1" relative="1" as="geometry">
            <mxPoint as="offset" />
          </mxGeometry>
        </mxCell>
        <mxCell id="8Ib-3XbVQs4SO_SZbe9_-91" value="图数据库" style="shape=cylinder3;whiteSpace=wrap;html=1;boundedLbl=1;backgroundOutline=1;size=15;" vertex="1" parent="1">
          <mxGeometry x="503.55999999999995" y="161.87" width="78.9" height="90" as="geometry" />
        </mxCell>
        <mxCell id="8Ib-3XbVQs4SO_SZbe9_-92" value="对公图谱建设" style="swimlane;whiteSpace=wrap;html=1;dashed=1;" vertex="1" parent="1">
          <mxGeometry x="243" y="90" width="200" height="233.75" as="geometry" />
        </mxCell>
        <mxCell id="8Ib-3XbVQs4SO_SZbe9_-93" style="edgeStyle=orthogonalEdgeStyle;rounded=0;orthogonalLoop=1;jettySize=auto;html=1;exitX=0.5;exitY=1;exitDx=0;exitDy=0;entryX=0.5;entryY=0;entryDx=0;entryDy=0;" edge="1" parent="8Ib-3XbVQs4SO_SZbe9_-92" source="8Ib-3XbVQs4SO_SZbe9_-94" target="8Ib-3XbVQs4SO_SZbe9_-96">
          <mxGeometry relative="1" as="geometry" />
        </mxCell>
        <mxCell id="8Ib-3XbVQs4SO_SZbe9_-94" value="图结构设计" style="rounded=0;whiteSpace=wrap;html=1;" vertex="1" parent="8Ib-3XbVQs4SO_SZbe9_-92">
          <mxGeometry x="10" y="30" width="180" height="20" as="geometry" />
        </mxCell>
        <mxCell id="8Ib-3XbVQs4SO_SZbe9_-95" style="edgeStyle=orthogonalEdgeStyle;rounded=0;orthogonalLoop=1;jettySize=auto;html=1;exitX=0.5;exitY=1;exitDx=0;exitDy=0;entryX=0.5;entryY=0;entryDx=0;entryDy=0;" edge="1" parent="8Ib-3XbVQs4SO_SZbe9_-92" source="8Ib-3XbVQs4SO_SZbe9_-96" target="8Ib-3XbVQs4SO_SZbe9_-98">
          <mxGeometry relative="1" as="geometry" />
        </mxCell>
        <mxCell id="8Ib-3XbVQs4SO_SZbe9_-96" value="数据清洗" style="rounded=0;whiteSpace=wrap;html=1;" vertex="1" parent="8Ib-3XbVQs4SO_SZbe9_-92">
          <mxGeometry x="10" y="64.75" width="180" height="20" as="geometry" />
        </mxCell>
        <mxCell id="8Ib-3XbVQs4SO_SZbe9_-97" style="edgeStyle=orthogonalEdgeStyle;rounded=0;orthogonalLoop=1;jettySize=auto;html=1;exitX=0.5;exitY=1;exitDx=0;exitDy=0;entryX=0.5;entryY=0;entryDx=0;entryDy=0;" edge="1" parent="8Ib-3XbVQs4SO_SZbe9_-92" source="8Ib-3XbVQs4SO_SZbe9_-98" target="8Ib-3XbVQs4SO_SZbe9_-101">
          <mxGeometry relative="1" as="geometry" />
        </mxCell>
        <mxCell id="8Ib-3XbVQs4SO_SZbe9_-98" value="数据加工" style="rounded=0;whiteSpace=wrap;html=1;" vertex="1" parent="8Ib-3XbVQs4SO_SZbe9_-92">
          <mxGeometry x="10" y="99.75" width="180" height="20" as="geometry" />
        </mxCell>
        <mxCell id="8Ib-3XbVQs4SO_SZbe9_-99" value="点边入图" style="rounded=0;whiteSpace=wrap;html=1;" vertex="1" parent="8Ib-3XbVQs4SO_SZbe9_-92">
          <mxGeometry x="9" y="203.75" width="180" height="20" as="geometry" />
        </mxCell>
        <mxCell id="8Ib-3XbVQs4SO_SZbe9_-100" style="edgeStyle=orthogonalEdgeStyle;rounded=0;orthogonalLoop=1;jettySize=auto;html=1;exitX=0.5;exitY=1;exitDx=0;exitDy=0;entryX=0.5;entryY=0;entryDx=0;entryDy=0;" edge="1" parent="8Ib-3XbVQs4SO_SZbe9_-92" source="8Ib-3XbVQs4SO_SZbe9_-101" target="8Ib-3XbVQs4SO_SZbe9_-103">
          <mxGeometry relative="1" as="geometry" />
        </mxCell>
        <mxCell id="8Ib-3XbVQs4SO_SZbe9_-101" value="生成实体表" style="rounded=0;whiteSpace=wrap;html=1;" vertex="1" parent="8Ib-3XbVQs4SO_SZbe9_-92">
          <mxGeometry x="10" y="134.75" width="180" height="20" as="geometry" />
        </mxCell>
        <mxCell id="8Ib-3XbVQs4SO_SZbe9_-102" style="edgeStyle=orthogonalEdgeStyle;rounded=0;orthogonalLoop=1;jettySize=auto;html=1;exitX=0.5;exitY=1;exitDx=0;exitDy=0;entryX=0.5;entryY=0;entryDx=0;entryDy=0;" edge="1" parent="8Ib-3XbVQs4SO_SZbe9_-92" source="8Ib-3XbVQs4SO_SZbe9_-103" target="8Ib-3XbVQs4SO_SZbe9_-99">
          <mxGeometry relative="1" as="geometry" />
        </mxCell>
        <mxCell id="8Ib-3XbVQs4SO_SZbe9_-103" value="生成关系表" style="rounded=0;whiteSpace=wrap;html=1;" vertex="1" parent="8Ib-3XbVQs4SO_SZbe9_-92">
          <mxGeometry x="9" y="168.75" width="180" height="20" as="geometry" />
        </mxCell>
        <mxCell id="8Ib-3XbVQs4SO_SZbe9_-104" value="结构化数据准备" style="swimlane;fontStyle=0;childLayout=stackLayout;horizontal=1;startSize=30;horizontalStack=0;resizeParent=1;resizeParentMax=0;resizeLast=0;collapsible=1;marginBottom=0;whiteSpace=wrap;html=1;rounded=0;glass=0;" vertex="1" parent="1">
          <mxGeometry x="53" y="131.87" width="140" height="150" as="geometry" />
        </mxCell>
        <mxCell id="8Ib-3XbVQs4SO_SZbe9_-105" value="工商数据" style="text;strokeColor=none;fillColor=none;align=left;verticalAlign=middle;spacingLeft=4;spacingRight=4;overflow=hidden;points=[[0,0.5],[1,0.5]];portConstraint=eastwest;rotatable=0;whiteSpace=wrap;html=1;" vertex="1" parent="8Ib-3XbVQs4SO_SZbe9_-104">
          <mxGeometry y="30" width="140" height="30" as="geometry" />
        </mxCell>
        <mxCell id="8Ib-3XbVQs4SO_SZbe9_-106" value="产业链数据" style="text;strokeColor=none;fillColor=none;align=left;verticalAlign=middle;spacingLeft=4;spacingRight=4;overflow=hidden;points=[[0,0.5],[1,0.5]];portConstraint=eastwest;rotatable=0;whiteSpace=wrap;html=1;" vertex="1" parent="8Ib-3XbVQs4SO_SZbe9_-104">
          <mxGeometry y="60" width="140" height="30" as="geometry" />
        </mxCell>
        <mxCell id="8Ib-3XbVQs4SO_SZbe9_-107" value="股权投资数据" style="text;strokeColor=none;fillColor=none;align=left;verticalAlign=middle;spacingLeft=4;spacingRight=4;overflow=hidden;points=[[0,0.5],[1,0.5]];portConstraint=eastwest;rotatable=0;whiteSpace=wrap;html=1;" vertex="1" parent="8Ib-3XbVQs4SO_SZbe9_-104">
          <mxGeometry y="90" width="140" height="30" as="geometry" />
        </mxCell>
        <mxCell id="8Ib-3XbVQs4SO_SZbe9_-108" value="......." style="text;strokeColor=none;fillColor=none;align=left;verticalAlign=middle;spacingLeft=4;spacingRight=4;overflow=hidden;points=[[0,0.5],[1,0.5]];portConstraint=eastwest;rotatable=0;whiteSpace=wrap;html=1;" vertex="1" parent="8Ib-3XbVQs4SO_SZbe9_-104">
          <mxGeometry y="120" width="140" height="30" as="geometry" />
        </mxCell>
        <mxCell id="8Ib-3XbVQs4SO_SZbe9_-109" style="edgeStyle=orthogonalEdgeStyle;rounded=0;orthogonalLoop=1;jettySize=auto;html=1;exitX=0.5;exitY=1;exitDx=0;exitDy=0;" edge="1" parent="1" source="8Ib-3XbVQs4SO_SZbe9_-111">
          <mxGeometry relative="1" as="geometry">
            <mxPoint x="513.0952380952381" y="474.62" as="targetPoint" />
          </mxGeometry>
        </mxCell>
        <mxCell id="8Ib-3XbVQs4SO_SZbe9_-111" value="生成静态图实体摘要" style="rounded=0;whiteSpace=wrap;html=1;" vertex="1" parent="1">
          <mxGeometry x="453" y="334.62" width="120.55" height="30" as="geometry" />
        </mxCell>
        <mxCell id="8Ib-3XbVQs4SO_SZbe9_-112" value="文本数据准备" style="swimlane;fontStyle=0;childLayout=stackLayout;horizontal=1;startSize=30;horizontalStack=0;resizeParent=1;resizeParentMax=0;resizeLast=0;collapsible=1;marginBottom=0;whiteSpace=wrap;html=1;" vertex="1" parent="1">
          <mxGeometry x="53" y="419.62" width="140" height="150" as="geometry" />
        </mxCell>
        <mxCell id="8Ib-3XbVQs4SO_SZbe9_-113" value="舆情数据" style="text;strokeColor=none;fillColor=none;align=left;verticalAlign=middle;spacingLeft=4;spacingRight=4;overflow=hidden;points=[[0,0.5],[1,0.5]];portConstraint=eastwest;rotatable=0;whiteSpace=wrap;html=1;" vertex="1" parent="8Ib-3XbVQs4SO_SZbe9_-112">
          <mxGeometry y="30" width="140" height="30" as="geometry" />
        </mxCell>
        <mxCell id="8Ib-3XbVQs4SO_SZbe9_-114" style="edgeStyle=orthogonalEdgeStyle;rounded=0;orthogonalLoop=1;jettySize=auto;html=1;exitX=1;exitY=0.5;exitDx=0;exitDy=0;" edge="1" parent="8Ib-3XbVQs4SO_SZbe9_-112" source="8Ib-3XbVQs4SO_SZbe9_-115">
          <mxGeometry relative="1" as="geometry">
            <mxPoint x="187" y="74.38" as="targetPoint" />
          </mxGeometry>
        </mxCell>
        <mxCell id="8Ib-3XbVQs4SO_SZbe9_-147" value="&lt;span style=&quot;caret-color: rgba(0, 0, 0, 0); color: rgba(0, 0, 0, 0); font-family: monospace; font-size: 0px; text-align: start; background-color: rgb(251, 251, 251);&quot;&gt;%3CmxGraphModel%3E%3Croot%3E%3CmxCell%20id%3D%220%22%2F%3E%3CmxCell%20id%3D%221%22%20parent%3D%220%22%2F%3E%3CmxCell%20id%3D%222%22%20value%3D%22%E2%91%A0%22%20style%3D%22edgeLabel%3Bhtml%3D1%3Balign%3Dcenter%3BverticalAlign%3Dmiddle%3Bresizable%3D0%3Bpoints%3D%5B%5D%3B%22%20vertex%3D%221%22%20connectable%3D%220%22%20parent%3D%221%22%3E%3CmxGeometry%20x%3D%22214.66676655833294%22%20y%3D%22205.8721666716558%22%20as%3D%22geometry%22%2F%3E%3C%2FmxCell%3E%3C%2Froot%3E%3C%2FmxGraphModel%3E&lt;/span&gt;" style="edgeLabel;html=1;align=center;verticalAlign=middle;resizable=0;points=[];" vertex="1" connectable="0" parent="8Ib-3XbVQs4SO_SZbe9_-114">
          <mxGeometry x="0.0296" y="-1" relative="1" as="geometry">
            <mxPoint as="offset" />
          </mxGeometry>
        </mxCell>
        <mxCell id="8Ib-3XbVQs4SO_SZbe9_-149" value="①" style="edgeLabel;html=1;align=center;verticalAlign=middle;resizable=0;points=[];" vertex="1" connectable="0" parent="8Ib-3XbVQs4SO_SZbe9_-114">
          <mxGeometry x="-0.115" relative="1" as="geometry">
            <mxPoint as="offset" />
          </mxGeometry>
        </mxCell>
        <mxCell id="8Ib-3XbVQs4SO_SZbe9_-115" value="企业年报" style="text;strokeColor=none;fillColor=none;align=left;verticalAlign=middle;spacingLeft=4;spacingRight=4;overflow=hidden;points=[[0,0.5],[1,0.5]];portConstraint=eastwest;rotatable=0;whiteSpace=wrap;html=1;" vertex="1" parent="8Ib-3XbVQs4SO_SZbe9_-112">
          <mxGeometry y="60" width="140" height="30" as="geometry" />
        </mxCell>
        <mxCell id="8Ib-3XbVQs4SO_SZbe9_-116" value="上市公司动向报道" style="text;strokeColor=none;fillColor=none;align=left;verticalAlign=middle;spacingLeft=4;spacingRight=4;overflow=hidden;points=[[0,0.5],[1,0.5]];portConstraint=eastwest;rotatable=0;whiteSpace=wrap;html=1;" vertex="1" parent="8Ib-3XbVQs4SO_SZbe9_-112">
          <mxGeometry y="90" width="140" height="30" as="geometry" />
        </mxCell>
        <mxCell id="8Ib-3XbVQs4SO_SZbe9_-117" value="......." style="text;strokeColor=none;fillColor=none;align=left;verticalAlign=middle;spacingLeft=4;spacingRight=4;overflow=hidden;points=[[0,0.5],[1,0.5]];portConstraint=eastwest;rotatable=0;whiteSpace=wrap;html=1;" vertex="1" parent="8Ib-3XbVQs4SO_SZbe9_-112">
          <mxGeometry y="120" width="140" height="30" as="geometry" />
        </mxCell>
        <mxCell id="8Ib-3XbVQs4SO_SZbe9_-118" value="基于RAG和LLM生成知识图谱" style="swimlane;whiteSpace=wrap;html=1;dashed=1;" vertex="1" parent="1">
          <mxGeometry x="240" y="354" width="203" height="310.62" as="geometry">
            <mxRectangle x="214" y="335" width="200" height="30" as="alternateBounds" />
          </mxGeometry>
        </mxCell>
        <mxCell id="8Ib-3XbVQs4SO_SZbe9_-119" value="文本切片" style="rounded=0;whiteSpace=wrap;html=1;" vertex="1" parent="8Ib-3XbVQs4SO_SZbe9_-118">
          <mxGeometry x="10" y="35" width="180" height="20" as="geometry" />
        </mxCell>
        <mxCell id="8Ib-3XbVQs4SO_SZbe9_-120" style="edgeStyle=orthogonalEdgeStyle;rounded=0;orthogonalLoop=1;jettySize=auto;html=1;exitX=0.5;exitY=1;exitDx=0;exitDy=0;entryX=0.5;entryY=0;entryDx=0;entryDy=0;" edge="1" parent="8Ib-3XbVQs4SO_SZbe9_-118">
          <mxGeometry relative="1" as="geometry">
            <mxPoint x="100" y="89" as="sourcePoint" />
            <mxPoint x="100" y="109" as="targetPoint" />
          </mxGeometry>
        </mxCell>
        <mxCell id="8Ib-3XbVQs4SO_SZbe9_-121" value="抽取实体" style="rounded=0;whiteSpace=wrap;html=1;" vertex="1" parent="8Ib-3XbVQs4SO_SZbe9_-118">
          <mxGeometry x="10" y="70" width="180" height="20" as="geometry" />
        </mxCell>
        <mxCell id="8Ib-3XbVQs4SO_SZbe9_-122" value="生成文本实体摘要" style="rounded=0;whiteSpace=wrap;html=1;" vertex="1" parent="8Ib-3XbVQs4SO_SZbe9_-118">
          <mxGeometry x="10" y="110" width="180" height="20" as="geometry" />
        </mxCell>
        <mxCell id="8Ib-3XbVQs4SO_SZbe9_-146" style="edgeStyle=orthogonalEdgeStyle;rounded=0;orthogonalLoop=1;jettySize=auto;html=1;exitX=0.5;exitY=1;exitDx=0;exitDy=0;entryX=0.5;entryY=0;entryDx=0;entryDy=0;" edge="1" parent="8Ib-3XbVQs4SO_SZbe9_-118" source="8Ib-3XbVQs4SO_SZbe9_-123" target="8Ib-3XbVQs4SO_SZbe9_-124">
          <mxGeometry relative="1" as="geometry" />
        </mxCell>
        <mxCell id="8Ib-3XbVQs4SO_SZbe9_-167" value="&lt;span style=&quot;caret-color: rgb(25, 27, 31); color: rgb(25, 27, 31); font-family: -apple-system, BlinkMacSystemFont, &amp;quot;Helvetica Neue&amp;quot;, Helvetica, &amp;quot;Segoe UI&amp;quot;, Arial, Roboto, &amp;quot;PingFang SC&amp;quot;, miui, &amp;quot;Hiragino Sans GB&amp;quot;, &amp;quot;Microsoft Yahei&amp;quot;, sans-serif; text-align: start; white-space: normal;&quot;&gt;&lt;font style=&quot;font-size: 11px;&quot;&gt;⑪&lt;/font&gt;&lt;/span&gt;" style="edgeLabel;html=1;align=center;verticalAlign=middle;resizable=0;points=[];" vertex="1" connectable="0" parent="8Ib-3XbVQs4SO_SZbe9_-146">
          <mxGeometry x="-0.4527" y="1" relative="1" as="geometry">
            <mxPoint as="offset" />
          </mxGeometry>
        </mxCell>
        <mxCell id="8Ib-3XbVQs4SO_SZbe9_-123" value="生成最终节点摘要" style="rounded=0;whiteSpace=wrap;html=1;" vertex="1" parent="8Ib-3XbVQs4SO_SZbe9_-118">
          <mxGeometry x="10" y="145" width="180" height="20" as="geometry" />
        </mxCell>
        <mxCell id="8Ib-3XbVQs4SO_SZbe9_-151" style="edgeStyle=orthogonalEdgeStyle;rounded=0;orthogonalLoop=1;jettySize=auto;html=1;exitX=0.5;exitY=1;exitDx=0;exitDy=0;entryX=0.5;entryY=0;entryDx=0;entryDy=0;" edge="1" parent="8Ib-3XbVQs4SO_SZbe9_-118" source="8Ib-3XbVQs4SO_SZbe9_-124" target="8Ib-3XbVQs4SO_SZbe9_-150">
          <mxGeometry relative="1" as="geometry" />
        </mxCell>
        <mxCell id="8Ib-3XbVQs4SO_SZbe9_-168" value="&lt;span style=&quot;caret-color: rgb(25, 27, 31); color: rgb(25, 27, 31); font-family: -apple-system, BlinkMacSystemFont, &amp;quot;Helvetica Neue&amp;quot;, Helvetica, &amp;quot;Segoe UI&amp;quot;, Arial, Roboto, &amp;quot;PingFang SC&amp;quot;, miui, &amp;quot;Hiragino Sans GB&amp;quot;, &amp;quot;Microsoft Yahei&amp;quot;, sans-serif; text-align: start; white-space: normal;&quot;&gt;&lt;font style=&quot;font-size: 11px;&quot;&gt;⑫&lt;/font&gt;&lt;/span&gt;" style="edgeLabel;html=1;align=center;verticalAlign=middle;resizable=0;points=[];" vertex="1" connectable="0" parent="8Ib-3XbVQs4SO_SZbe9_-151">
          <mxGeometry x="-0.6336" y="1" relative="1" as="geometry">
            <mxPoint as="offset" />
          </mxGeometry>
        </mxCell>
        <mxCell id="8Ib-3XbVQs4SO_SZbe9_-124" value="社区检测算法划分多层级社群" style="rounded=0;whiteSpace=wrap;html=1;" vertex="1" parent="8Ib-3XbVQs4SO_SZbe9_-118">
          <mxGeometry x="10" y="183.88" width="180" height="20" as="geometry" />
        </mxCell>
        <mxCell id="8Ib-3XbVQs4SO_SZbe9_-150" value="用GTE模型进行节点文本向量化" style="rounded=0;whiteSpace=wrap;html=1;" vertex="1" parent="8Ib-3XbVQs4SO_SZbe9_-118">
          <mxGeometry x="10" y="220" width="180" height="20" as="geometry" />
        </mxCell>
        <mxCell id="8Ib-3XbVQs4SO_SZbe9_-153" value="抽取目标实体和关系" style="rounded=0;whiteSpace=wrap;html=1;" vertex="1" parent="8Ib-3XbVQs4SO_SZbe9_-118">
          <mxGeometry x="11.5" y="250" width="180" height="20" as="geometry" />
        </mxCell>
        <mxCell id="8Ib-3XbVQs4SO_SZbe9_-170" value="生成社区摘要" style="rounded=0;whiteSpace=wrap;html=1;" vertex="1" parent="8Ib-3XbVQs4SO_SZbe9_-118">
          <mxGeometry x="11.5" y="280" width="180" height="20" as="geometry" />
        </mxCell>
        <mxCell id="8Ib-3XbVQs4SO_SZbe9_-125" style="edgeStyle=orthogonalEdgeStyle;rounded=0;orthogonalLoop=1;jettySize=auto;html=1;exitX=0.5;exitY=1;exitDx=0;exitDy=0;" edge="1" parent="1" source="8Ib-3XbVQs4SO_SZbe9_-128" target="8Ib-3XbVQs4SO_SZbe9_-137">
          <mxGeometry relative="1" as="geometry" />
        </mxCell>
        <mxCell id="8Ib-3XbVQs4SO_SZbe9_-126" value="拼接实体属性和&lt;div&gt;关联关系描述&lt;/div&gt;" style="edgeLabel;html=1;align=center;verticalAlign=middle;resizable=0;points=[];" vertex="1" connectable="0" parent="8Ib-3XbVQs4SO_SZbe9_-125">
          <mxGeometry x="-0.0181" y="1" relative="1" as="geometry">
            <mxPoint as="offset" />
          </mxGeometry>
        </mxCell>
        <mxCell id="8Ib-3XbVQs4SO_SZbe9_-127" value="④" style="edgeLabel;html=1;align=center;verticalAlign=middle;resizable=0;points=[];" vertex="1" connectable="0" parent="8Ib-3XbVQs4SO_SZbe9_-125">
          <mxGeometry x="-0.4369" relative="1" as="geometry">
            <mxPoint as="offset" />
          </mxGeometry>
        </mxCell>
        <mxCell id="8Ib-3XbVQs4SO_SZbe9_-128" value="对公图谱" style="ellipse;whiteSpace=wrap;html=1;aspect=fixed;" vertex="1" parent="1">
          <mxGeometry x="673" y="173.75" width="66.25" height="66.25" as="geometry" />
        </mxCell>
        <mxCell id="8Ib-3XbVQs4SO_SZbe9_-129" style="edgeStyle=orthogonalEdgeStyle;rounded=0;orthogonalLoop=1;jettySize=auto;html=1;exitX=1;exitY=0.5;exitDx=0;exitDy=0;entryX=0;entryY=0.5;entryDx=0;entryDy=0;" edge="1" parent="1" source="8Ib-3XbVQs4SO_SZbe9_-106" target="8Ib-3XbVQs4SO_SZbe9_-92">
          <mxGeometry relative="1" as="geometry" />
        </mxCell>
        <mxCell id="8Ib-3XbVQs4SO_SZbe9_-165" value="&lt;span style=&quot;caret-color: rgb(25, 27, 31); color: rgb(25, 27, 31); font-family: -apple-system, BlinkMacSystemFont, &amp;quot;Helvetica Neue&amp;quot;, Helvetica, &amp;quot;Segoe UI&amp;quot;, Arial, Roboto, &amp;quot;PingFang SC&amp;quot;, miui, &amp;quot;Hiragino Sans GB&amp;quot;, &amp;quot;Microsoft Yahei&amp;quot;, sans-serif; text-align: start; white-space: normal;&quot;&gt;&lt;font style=&quot;font-size: 11px;&quot;&gt;①&lt;/font&gt;&lt;/span&gt;" style="edgeLabel;html=1;align=center;verticalAlign=middle;resizable=0;points=[];" vertex="1" connectable="0" parent="8Ib-3XbVQs4SO_SZbe9_-129">
          <mxGeometry x="-0.1" y="1" relative="1" as="geometry">
            <mxPoint as="offset" />
          </mxGeometry>
        </mxCell>
        <mxCell id="8Ib-3XbVQs4SO_SZbe9_-131" style="edgeStyle=orthogonalEdgeStyle;rounded=0;orthogonalLoop=1;jettySize=auto;html=1;exitX=0;exitY=0.25;exitDx=0;exitDy=0;" edge="1" parent="1" source="8Ib-3XbVQs4SO_SZbe9_-137" target="8Ib-3XbVQs4SO_SZbe9_-121">
          <mxGeometry relative="1" as="geometry">
            <Array as="points">
              <mxPoint x="649" y="434.62" />
            </Array>
          </mxGeometry>
        </mxCell>
        <mxCell id="8Ib-3XbVQs4SO_SZbe9_-132" value="⑦" style="edgeLabel;html=1;align=center;verticalAlign=middle;resizable=0;points=[];" vertex="1" connectable="0" parent="8Ib-3XbVQs4SO_SZbe9_-131">
          <mxGeometry x="-0.3814" y="-1" relative="1" as="geometry">
            <mxPoint x="-33" as="offset" />
          </mxGeometry>
        </mxCell>
        <mxCell id="8Ib-3XbVQs4SO_SZbe9_-133" style="edgeStyle=orthogonalEdgeStyle;rounded=0;orthogonalLoop=1;jettySize=auto;html=1;exitX=0.25;exitY=0;exitDx=0;exitDy=0;entryX=1;entryY=0.5;entryDx=0;entryDy=0;" edge="1" parent="1" source="8Ib-3XbVQs4SO_SZbe9_-137" target="8Ib-3XbVQs4SO_SZbe9_-111">
          <mxGeometry relative="1" as="geometry" />
        </mxCell>
        <mxCell id="8Ib-3XbVQs4SO_SZbe9_-134" value="⑤" style="edgeLabel;html=1;align=center;verticalAlign=middle;resizable=0;points=[];" vertex="1" connectable="0" parent="8Ib-3XbVQs4SO_SZbe9_-133">
          <mxGeometry x="-0.2396" y="1" relative="1" as="geometry">
            <mxPoint as="offset" />
          </mxGeometry>
        </mxCell>
        <mxCell id="8Ib-3XbVQs4SO_SZbe9_-135" value="&lt;span style=&quot;font-style: normal; font-variant-caps: normal; font-weight: 400; letter-spacing: normal; text-align: start; text-indent: 0px; text-transform: none; white-space: normal; word-spacing: 0px; -webkit-text-stroke-width: 0px; text-decoration: none; caret-color: rgb(25, 27, 31); color: rgb(25, 27, 31); font-family: -apple-system, BlinkMacSystemFont, &amp;quot;Helvetica Neue&amp;quot;, Helvetica, &amp;quot;Segoe UI&amp;quot;, Arial, Roboto, &amp;quot;PingFang SC&amp;quot;, miui, &amp;quot;Hiragino Sans GB&amp;quot;, &amp;quot;Microsoft Yahei&amp;quot;, sans-serif; background-color: rgb(255, 255, 255); float: none; display: inline !important;&quot;&gt;&lt;font style=&quot;font-size: 11px;&quot;&gt;⑩&lt;/font&gt;&lt;/span&gt;" style="edgeStyle=orthogonalEdgeStyle;rounded=0;orthogonalLoop=1;jettySize=auto;html=1;exitX=-0.026;exitY=0.526;exitDx=0;exitDy=0;exitPerimeter=0;" edge="1" parent="1" source="8Ib-3XbVQs4SO_SZbe9_-137" target="8Ib-3XbVQs4SO_SZbe9_-123">
          <mxGeometry relative="1" as="geometry" />
        </mxCell>
        <mxCell id="8Ib-3XbVQs4SO_SZbe9_-136" value="⑨" style="edgeLabel;html=1;align=center;verticalAlign=middle;resizable=0;points=[];" vertex="1" connectable="0" parent="8Ib-3XbVQs4SO_SZbe9_-135">
          <mxGeometry x="-0.1633" y="-1" relative="1" as="geometry">
            <mxPoint x="-42" y="-127" as="offset" />
          </mxGeometry>
        </mxCell>
        <mxCell id="8Ib-3XbVQs4SO_SZbe9_-157" style="edgeStyle=orthogonalEdgeStyle;rounded=0;orthogonalLoop=1;jettySize=auto;html=1;exitX=0;exitY=0.75;exitDx=0;exitDy=0;entryX=1;entryY=0.5;entryDx=0;entryDy=0;" edge="1" parent="1" source="8Ib-3XbVQs4SO_SZbe9_-137" target="8Ib-3XbVQs4SO_SZbe9_-153">
          <mxGeometry relative="1" as="geometry">
            <Array as="points">
              <mxPoint x="560" y="559" />
              <mxPoint x="560" y="614" />
            </Array>
          </mxGeometry>
        </mxCell>
        <mxCell id="8Ib-3XbVQs4SO_SZbe9_-169" value="&lt;span style=&quot;caret-color: rgb(25, 27, 31); color: rgb(25, 27, 31); font-family: -apple-system, BlinkMacSystemFont, &amp;quot;Helvetica Neue&amp;quot;, Helvetica, &amp;quot;Segoe UI&amp;quot;, Arial, Roboto, &amp;quot;PingFang SC&amp;quot;, miui, &amp;quot;Hiragino Sans GB&amp;quot;, &amp;quot;Microsoft Yahei&amp;quot;, sans-serif; text-align: start; white-space: normal;&quot;&gt;&lt;font style=&quot;font-size: 11px;&quot;&gt;⑭&lt;/font&gt;&lt;/span&gt;" style="edgeLabel;html=1;align=center;verticalAlign=middle;resizable=0;points=[];" vertex="1" connectable="0" parent="8Ib-3XbVQs4SO_SZbe9_-157">
          <mxGeometry x="-0.4071" y="-1" relative="1" as="geometry">
            <mxPoint x="-7" as="offset" />
          </mxGeometry>
        </mxCell>
        <mxCell id="8Ib-3XbVQs4SO_SZbe9_-171" style="edgeStyle=orthogonalEdgeStyle;rounded=0;orthogonalLoop=1;jettySize=auto;html=1;exitX=0.043;exitY=0.948;exitDx=0;exitDy=0;entryX=1;entryY=0.5;entryDx=0;entryDy=0;exitPerimeter=0;" edge="1" parent="1" source="8Ib-3XbVQs4SO_SZbe9_-137" target="8Ib-3XbVQs4SO_SZbe9_-170">
          <mxGeometry relative="1" as="geometry">
            <Array as="points">
              <mxPoint x="600" y="603" />
              <mxPoint x="600" y="644" />
            </Array>
          </mxGeometry>
        </mxCell>
        <mxCell id="8Ib-3XbVQs4SO_SZbe9_-172" value="&lt;span style=&quot;caret-color: rgb(25, 27, 31); color: rgb(25, 27, 31); font-family: -apple-system, BlinkMacSystemFont, &amp;quot;Helvetica Neue&amp;quot;, Helvetica, &amp;quot;Segoe UI&amp;quot;, Arial, Roboto, &amp;quot;PingFang SC&amp;quot;, miui, &amp;quot;Hiragino Sans GB&amp;quot;, &amp;quot;Microsoft Yahei&amp;quot;, sans-serif; text-align: start; white-space: normal;&quot;&gt;&lt;font style=&quot;font-size: 11px;&quot;&gt;⑮&lt;/font&gt;&lt;/span&gt;" style="edgeLabel;html=1;align=center;verticalAlign=middle;resizable=0;points=[];" vertex="1" connectable="0" parent="8Ib-3XbVQs4SO_SZbe9_-171">
          <mxGeometry x="-0.6081" relative="1" as="geometry">
            <mxPoint as="offset" />
          </mxGeometry>
        </mxCell>
        <mxCell id="8Ib-3XbVQs4SO_SZbe9_-205" style="edgeStyle=orthogonalEdgeStyle;rounded=0;orthogonalLoop=1;jettySize=auto;html=1;exitX=0.75;exitY=1;exitDx=0;exitDy=0;" edge="1" parent="1" source="8Ib-3XbVQs4SO_SZbe9_-137" target="8Ib-3XbVQs4SO_SZbe9_-204">
          <mxGeometry relative="1" as="geometry" />
        </mxCell>
        <mxCell id="8Ib-3XbVQs4SO_SZbe9_-137" value="&lt;span style=&quot;font-size: 22px;&quot;&gt;大模型&lt;/span&gt;" style="rounded=1;whiteSpace=wrap;html=1;" vertex="1" parent="1">
          <mxGeometry x="648.63" y="394.62" width="121.37" height="219.38" as="geometry" />
        </mxCell>
        <mxCell id="8Ib-3XbVQs4SO_SZbe9_-139" style="edgeStyle=orthogonalEdgeStyle;rounded=0;orthogonalLoop=1;jettySize=auto;html=1;exitX=1;exitY=0.5;exitDx=0;exitDy=0;entryX=0;entryY=0.5;entryDx=0;entryDy=0;entryPerimeter=0;" edge="1" parent="1" source="8Ib-3XbVQs4SO_SZbe9_-92" target="8Ib-3XbVQs4SO_SZbe9_-91">
          <mxGeometry relative="1" as="geometry" />
        </mxCell>
        <mxCell id="8Ib-3XbVQs4SO_SZbe9_-166" value="&lt;span style=&quot;caret-color: rgb(25, 27, 31); color: rgb(25, 27, 31); font-family: -apple-system, BlinkMacSystemFont, &amp;quot;Helvetica Neue&amp;quot;, Helvetica, &amp;quot;Segoe UI&amp;quot;, Arial, Roboto, &amp;quot;PingFang SC&amp;quot;, miui, &amp;quot;Hiragino Sans GB&amp;quot;, &amp;quot;Microsoft Yahei&amp;quot;, sans-serif; text-align: start; white-space: normal;&quot;&gt;&lt;font style=&quot;font-size: 11px;&quot;&gt;②&lt;/font&gt;&lt;/span&gt;" style="edgeLabel;html=1;align=center;verticalAlign=middle;resizable=0;points=[];" vertex="1" connectable="0" parent="8Ib-3XbVQs4SO_SZbe9_-139">
          <mxGeometry x="-0.0918" relative="1" as="geometry">
            <mxPoint y="-1" as="offset" />
          </mxGeometry>
        </mxCell>
        <mxCell id="8Ib-3XbVQs4SO_SZbe9_-141" style="edgeStyle=orthogonalEdgeStyle;rounded=0;orthogonalLoop=1;jettySize=auto;html=1;exitX=1;exitY=0.5;exitDx=0;exitDy=0;entryX=0.045;entryY=0.021;entryDx=0;entryDy=0;entryPerimeter=0;" edge="1" parent="1" source="8Ib-3XbVQs4SO_SZbe9_-119" target="8Ib-3XbVQs4SO_SZbe9_-137">
          <mxGeometry relative="1" as="geometry">
            <Array as="points">
              <mxPoint x="654" y="399.62" />
            </Array>
          </mxGeometry>
        </mxCell>
        <mxCell id="8Ib-3XbVQs4SO_SZbe9_-142" value="⑥" style="edgeLabel;html=1;align=center;verticalAlign=middle;resizable=0;points=[];" vertex="1" connectable="0" parent="8Ib-3XbVQs4SO_SZbe9_-141">
          <mxGeometry x="0.076" y="-1" relative="1" as="geometry">
            <mxPoint y="-2" as="offset" />
          </mxGeometry>
        </mxCell>
        <mxCell id="8Ib-3XbVQs4SO_SZbe9_-143" style="edgeStyle=orthogonalEdgeStyle;rounded=0;orthogonalLoop=1;jettySize=auto;html=1;exitX=1;exitY=0.5;exitDx=0;exitDy=0;entryX=-0.012;entryY=0.366;entryDx=0;entryDy=0;entryPerimeter=0;" edge="1" parent="1" source="8Ib-3XbVQs4SO_SZbe9_-122" target="8Ib-3XbVQs4SO_SZbe9_-137">
          <mxGeometry relative="1" as="geometry" />
        </mxCell>
        <mxCell id="8Ib-3XbVQs4SO_SZbe9_-144" value="融合实体摘要（实体消歧）" style="edgeLabel;html=1;align=center;verticalAlign=middle;resizable=0;points=[];" vertex="1" connectable="0" parent="8Ib-3XbVQs4SO_SZbe9_-143">
          <mxGeometry x="-0.1663" y="2" relative="1" as="geometry">
            <mxPoint x="9" y="1" as="offset" />
          </mxGeometry>
        </mxCell>
        <mxCell id="8Ib-3XbVQs4SO_SZbe9_-145" value="⑧" style="edgeLabel;html=1;align=center;verticalAlign=middle;resizable=0;points=[];" vertex="1" connectable="0" parent="8Ib-3XbVQs4SO_SZbe9_-143">
          <mxGeometry x="0.3528" relative="1" as="geometry">
            <mxPoint x="-237" y="-23" as="offset" />
          </mxGeometry>
        </mxCell>
        <mxCell id="8Ib-3XbVQs4SO_SZbe9_-156" style="edgeStyle=orthogonalEdgeStyle;rounded=0;orthogonalLoop=1;jettySize=auto;html=1;exitX=1;exitY=0.5;exitDx=0;exitDy=0;entryX=0.022;entryY=0.651;entryDx=0;entryDy=0;entryPerimeter=0;" edge="1" parent="1" source="8Ib-3XbVQs4SO_SZbe9_-150" target="8Ib-3XbVQs4SO_SZbe9_-137">
          <mxGeometry relative="1" as="geometry" />
        </mxCell>
        <mxCell id="8Ib-3XbVQs4SO_SZbe9_-158" value="&lt;span style=&quot;caret-color: rgb(25, 27, 31); color: rgb(25, 27, 31); font-family: -apple-system, BlinkMacSystemFont, &amp;quot;Helvetica Neue&amp;quot;, Helvetica, &amp;quot;Segoe UI&amp;quot;, Arial, Roboto, &amp;quot;PingFang SC&amp;quot;, miui, &amp;quot;Hiragino Sans GB&amp;quot;, &amp;quot;Microsoft Yahei&amp;quot;, sans-serif; text-align: start; white-space: normal;&quot;&gt;&lt;font style=&quot;font-size: 11px;&quot;&gt;⑬&lt;/font&gt;&lt;/span&gt;" style="edgeLabel;html=1;align=center;verticalAlign=middle;resizable=0;points=[];" vertex="1" connectable="0" parent="8Ib-3XbVQs4SO_SZbe9_-156">
          <mxGeometry x="0.179" y="-1" relative="1" as="geometry">
            <mxPoint x="-2" as="offset" />
          </mxGeometry>
        </mxCell>
        <mxCell id="8Ib-3XbVQs4SO_SZbe9_-159" value="⑨" style="edgeLabel;html=1;align=center;verticalAlign=middle;resizable=0;points=[];" vertex="1" connectable="0" parent="1">
          <mxGeometry x="546.6411782127102" y="520.0020017889974" as="geometry">
            <mxPoint x="53" y="-47" as="offset" />
          </mxGeometry>
        </mxCell>
        <mxCell id="8Ib-3XbVQs4SO_SZbe9_-194" style="edgeStyle=orthogonalEdgeStyle;rounded=0;orthogonalLoop=1;jettySize=auto;html=1;exitX=0.55;exitY=0.95;exitDx=0;exitDy=0;exitPerimeter=0;entryX=0;entryY=0.5;entryDx=0;entryDy=0;" edge="1" parent="1" source="8Ib-3XbVQs4SO_SZbe9_-175" target="8Ib-3XbVQs4SO_SZbe9_-177">
          <mxGeometry relative="1" as="geometry" />
        </mxCell>
        <mxCell id="8Ib-3XbVQs4SO_SZbe9_-175" value="用户查询" style="ellipse;shape=cloud;whiteSpace=wrap;html=1;" vertex="1" parent="1">
          <mxGeometry x="53" y="640" width="117" height="73.75" as="geometry" />
        </mxCell>
        <mxCell id="8Ib-3XbVQs4SO_SZbe9_-177" value="实体抽取" style="rounded=1;whiteSpace=wrap;html=1;" vertex="1" parent="1">
          <mxGeometry x="140" y="786" width="83" height="32.5" as="geometry" />
        </mxCell>
        <mxCell id="8Ib-3XbVQs4SO_SZbe9_-180" style="edgeStyle=orthogonalEdgeStyle;rounded=0;orthogonalLoop=1;jettySize=auto;html=1;exitX=1;exitY=0.5;exitDx=0;exitDy=0;" edge="1" parent="1" source="8Ib-3XbVQs4SO_SZbe9_-181">
          <mxGeometry relative="1" as="geometry">
            <mxPoint x="360" y="802" as="targetPoint" />
          </mxGeometry>
        </mxCell>
        <mxCell id="8Ib-3XbVQs4SO_SZbe9_-191" style="edgeStyle=orthogonalEdgeStyle;rounded=0;orthogonalLoop=1;jettySize=auto;html=1;exitX=1;exitY=0.15;exitDx=0;exitDy=0;exitPerimeter=0;entryX=0.5;entryY=0;entryDx=0;entryDy=0;" edge="1" parent="1" source="8Ib-3XbVQs4SO_SZbe9_-185" target="8Ib-3XbVQs4SO_SZbe9_-190">
          <mxGeometry relative="1" as="geometry" />
        </mxCell>
        <mxCell id="8Ib-3XbVQs4SO_SZbe9_-185" value="知识库" style="strokeWidth=2;html=1;shape=mxgraph.flowchart.database;whiteSpace=wrap;" vertex="1" parent="1">
          <mxGeometry x="311.5" y="689.38" width="68.5" height="70.62" as="geometry" />
        </mxCell>
        <mxCell id="8Ib-3XbVQs4SO_SZbe9_-186" style="edgeStyle=orthogonalEdgeStyle;rounded=0;orthogonalLoop=1;jettySize=auto;html=1;exitX=0.5;exitY=1;exitDx=0;exitDy=0;entryX=0.5;entryY=0;entryDx=0;entryDy=0;entryPerimeter=0;" edge="1" parent="1" source="8Ib-3XbVQs4SO_SZbe9_-170" target="8Ib-3XbVQs4SO_SZbe9_-185">
          <mxGeometry relative="1" as="geometry" />
        </mxCell>
        <mxCell id="8Ib-3XbVQs4SO_SZbe9_-188" value="&lt;span style=&quot;caret-color: rgb(25, 27, 31); color: rgb(25, 27, 31); font-family: -apple-system, BlinkMacSystemFont, &amp;quot;Helvetica Neue&amp;quot;, Helvetica, &amp;quot;Segoe UI&amp;quot;, Arial, Roboto, &amp;quot;PingFang SC&amp;quot;, miui, &amp;quot;Hiragino Sans GB&amp;quot;, &amp;quot;Microsoft Yahei&amp;quot;, sans-serif; text-align: start; white-space: normal;&quot;&gt;⑯&lt;/span&gt;" style="edgeLabel;html=1;align=center;verticalAlign=middle;resizable=0;points=[];" vertex="1" connectable="0" parent="8Ib-3XbVQs4SO_SZbe9_-186">
          <mxGeometry x="-0.0138" relative="1" as="geometry">
            <mxPoint as="offset" />
          </mxGeometry>
        </mxCell>
        <mxCell id="8Ib-3XbVQs4SO_SZbe9_-192" style="edgeStyle=orthogonalEdgeStyle;rounded=0;orthogonalLoop=1;jettySize=auto;html=1;exitX=1;exitY=0.5;exitDx=0;exitDy=0;entryX=0.25;entryY=1;entryDx=0;entryDy=0;" edge="1" parent="1" source="8Ib-3XbVQs4SO_SZbe9_-190" target="8Ib-3XbVQs4SO_SZbe9_-137">
          <mxGeometry relative="1" as="geometry" />
        </mxCell>
        <mxCell id="8Ib-3XbVQs4SO_SZbe9_-203" value="大模型进行社区&lt;div&gt;摘要重要性排序&lt;/div&gt;" style="edgeLabel;html=1;align=center;verticalAlign=middle;resizable=0;points=[];" vertex="1" connectable="0" parent="8Ib-3XbVQs4SO_SZbe9_-192">
          <mxGeometry x="0.3483" y="-1" relative="1" as="geometry">
            <mxPoint as="offset" />
          </mxGeometry>
        </mxCell>
        <mxCell id="8Ib-3XbVQs4SO_SZbe9_-190" value="根据向量文本匹配到多层次社区摘要" style="rounded=1;whiteSpace=wrap;html=1;" vertex="1" parent="1">
          <mxGeometry x="446.14" y="786" width="100.5" height="32.5" as="geometry" />
        </mxCell>
        <mxCell id="8Ib-3XbVQs4SO_SZbe9_-195" value="" style="edgeStyle=orthogonalEdgeStyle;rounded=0;orthogonalLoop=1;jettySize=auto;html=1;exitX=1;exitY=0.5;exitDx=0;exitDy=0;" edge="1" parent="1" source="8Ib-3XbVQs4SO_SZbe9_-177" target="8Ib-3XbVQs4SO_SZbe9_-181">
          <mxGeometry relative="1" as="geometry">
            <mxPoint x="223" y="802" as="sourcePoint" />
            <mxPoint x="360" y="802" as="targetPoint" />
          </mxGeometry>
        </mxCell>
        <mxCell id="8Ib-3XbVQs4SO_SZbe9_-181" value="查询语句向量化" style="rounded=1;whiteSpace=wrap;html=1;" vertex="1" parent="1">
          <mxGeometry x="295.5" y="786" width="100.5" height="32.5" as="geometry" />
        </mxCell>
        <mxCell id="8Ib-3XbVQs4SO_SZbe9_-196" style="edgeStyle=orthogonalEdgeStyle;rounded=0;orthogonalLoop=1;jettySize=auto;html=1;exitX=0.5;exitY=0;exitDx=0;exitDy=0;entryX=0.5;entryY=1;entryDx=0;entryDy=0;entryPerimeter=0;" edge="1" parent="1" source="8Ib-3XbVQs4SO_SZbe9_-181" target="8Ib-3XbVQs4SO_SZbe9_-185">
          <mxGeometry relative="1" as="geometry" />
        </mxCell>
        <mxCell id="8Ib-3XbVQs4SO_SZbe9_-197" value="最终回答" style="rounded=1;whiteSpace=wrap;html=1;" vertex="1" parent="1">
          <mxGeometry x="376.14" y="840" width="70" height="50.62" as="geometry" />
        </mxCell>
        <mxCell id="8Ib-3XbVQs4SO_SZbe9_-202" style="edgeStyle=orthogonalEdgeStyle;rounded=0;orthogonalLoop=1;jettySize=auto;html=1;exitX=0;exitY=0.5;exitDx=0;exitDy=0;entryX=0.234;entryY=0.838;entryDx=0;entryDy=0;entryPerimeter=0;" edge="1" parent="1" source="8Ib-3XbVQs4SO_SZbe9_-197" target="8Ib-3XbVQs4SO_SZbe9_-175">
          <mxGeometry relative="1" as="geometry" />
        </mxCell>
        <mxCell id="8Ib-3XbVQs4SO_SZbe9_-206" style="edgeStyle=orthogonalEdgeStyle;rounded=0;orthogonalLoop=1;jettySize=auto;html=1;exitX=0;exitY=0.5;exitDx=0;exitDy=0;" edge="1" parent="1" source="8Ib-3XbVQs4SO_SZbe9_-204" target="8Ib-3XbVQs4SO_SZbe9_-197">
          <mxGeometry relative="1" as="geometry" />
        </mxCell>
        <mxCell id="8Ib-3XbVQs4SO_SZbe9_-204" value="企金营销提示语模版" style="rounded=1;whiteSpace=wrap;html=1;" vertex="1" parent="1">
          <mxGeometry x="700" y="840" width="70" height="50.62" as="geometry" />
        </mxCell>
      </root>
    </mxGraphModel>
  </diagram>
</mxfile>
